<?xml version="1.0" encoding="utf-8"?>
<!-- Generator: Adobe Illustrator 27.1.1, SVG Export Plug-In . SVG Version: 6.00 Build 0)  -->
<svg version="1.1" id="Layer_1" xmlns="http://www.w3.org/2000/svg" xmlns:xlink="http://www.w3.org/1999/xlink" x="0px" y="0px"
	 viewBox="0 0 512 512" style="enable-background:new 0 0 512 512;" xml:space="preserve">
<style type="text/css">
	.st0{fill:#FFFFFF;stroke:#000000;stroke-miterlimit:10;}
</style>
<g>
	<path class="st0" d="M393.8,19.7c-40.2,0-65.1,23.8-78.8,42.5V39.4C3.6,39.4,0,487.8,0,492.3h78.8c0,0-0.3-96,30.2-190.8
		c15.2-47.4,38.4-94.2,71.4-128s75.2-55.4,134.8-55.4h12.3L333,107c0,0,17.5-29.2,41.2-41.8V123l80.6,161.2l1.8,3.1l2.5,2.5
		c7.9,7.5,10.9,14.5,12.3,19.1c1.1,3.3,0.6,3.2,0.6,3.7c-0.5,1.9-1.4,6.1-4.9,11.7c-4.3,6.8-8.2,10.5-14.2,10.5s-9.8-3.6-14.2-10.5
		c-4.3-6.8-6.2-14.2-6.2-14.2l-4.3-16.6l-17.2,1.8c0,0-16.4,1.9-34.5-3.1S341.3,278.4,334,251l-6.8-25.2L305,238.7
		c-25.5,14.9-40.2,37.7-43.1,60.9c-2.8,23.2,4,45.6,12.3,67.7c16.5,44.2,40.6,89.2,40.6,124.9h39.4c0-51.6-28.8-99.5-43.7-139.1
		c-7.4-19.8-10.8-36.5-9.2-48.6c0.9-7.4,3.9-13.7,9.2-19.7c15,23.5,35.5,40.1,55.4,45.5c18.3,5.1,25.8,3.5,34.5,3.1
		c1.8,4.6,1.2,5.8,4.9,11.7c8,12.8,23.8,28.9,47.4,28.9c23.5,0,39.4-16.1,47.4-28.9s11.1-25.2,11.1-25.2l0.6-1.8v-1.8
		c0,0,0.2-9.5-3.1-19.7c-2.7-8.6-9.8-19.1-19.1-29.5h0.6l-76.9-153.8V19.7H393.8z M304.6,79.4L304,80c-8,0.4-15.8,0.8-23.4,1.8
		c-6.2,0.8-12,2.4-17.8,3.7c5.8-1.5,11.7-2.7,17.8-3.7C288.3,80.5,296.4,79.8,304.6,79.4z M374.2,177.2c-10.8,0-19.7,8.8-19.7,19.7
		c0,10.8,8.8,19.7,19.7,19.7s19.7-8.8,19.7-19.7C393.8,186.1,385,177.2,374.2,177.2z"/>
</g>
</svg>
