<?xml version="1.0" encoding="UTF-8"?>
<svg id="Layer_1" data-name="Layer 1" xmlns="http://www.w3.org/2000/svg" viewBox="0 0 512.8 473.6">
  <defs>
    <style>
      .cls-1 {
        fill: #fff;
        stroke: #000;
        stroke-miterlimit: 10;
      }
    </style>
  </defs>
  <path class="cls-1" d="m394.3.5c-40.2,0-65.1,23.8-78.8,42.5v-22.8C4.1,20.2.5,468.6.5,473.1h78.8s-.3-96,30.2-190.8c15.2-47.4,38.4-94.2,71.4-128s75.2-55.4,134.8-55.4h12.3l5.5-11.1s17.5-29.2,41.2-41.8v57.8l80.6,161.2,1.8,3.1,2.5,2.5c7.9,7.5,10.9,14.5,12.3,19.1,1.1,3.3.6,3.2.6,3.7-.5,1.9-1.4,6.1-4.9,11.7-4.3,6.8-8.2,10.5-14.2,10.5s-9.8-3.6-14.2-10.5c-4.3-6.8-6.2-14.2-6.2-14.2l-4.3-16.6-17.2,1.8s-16.4,1.9-34.5-3.1-35.2-13.8-42.5-41.2l-6.8-25.2-22.2,12.9c-25.5,14.9-40.2,37.7-43.1,60.9-2.8,23.2,4,45.6,12.3,67.7,16.5,44.2,40.6,89.2,40.6,124.9h39.4c0-51.6-28.8-99.5-43.7-139.1-7.4-19.8-10.8-36.5-9.2-48.6.9-7.4,3.9-13.7,9.2-19.7,15,23.5,35.5,40.1,55.4,45.5,18.3,5.1,25.8,3.5,34.5,3.1,1.8,4.6,1.2,5.8,4.9,11.7,8,12.8,23.8,28.9,47.4,28.9s39.4-16.1,47.4-28.9,11.1-25.2,11.1-25.2l.6-1.8v-1.8s.2-9.5-3.1-19.7c-2.7-8.6-9.8-19.1-19.1-29.5h.6l-76.9-153.8V.5h-19.5Zm-89.2,59.7l-.6.6c-8,.4-15.8.8-23.4,1.8-6.2.8-12,2.4-17.8,3.7,5.8-1.5,11.7-2.7,17.8-3.7,7.7-1.3,15.8-2,24-2.4Zm69.6,97.8c-10.8,0-19.7,8.8-19.7,19.7s8.8,19.7,19.7,19.7,19.7-8.8,19.7-19.7c-.1-10.8-8.9-19.7-19.7-19.7Z"/>
</svg>